<svg width="18" height="18" viewBox="0 0 18 18" fill="none" xmlns="http://www.w3.org/2000/svg">
<path d="M16.5001 8.25H3.31058L7.28033 4.28025C7.35197 4.21106 7.4091 4.12831 7.44841 4.0368C7.48772 3.9453 7.50841 3.84689 7.50927 3.7473C7.51014 3.64772 7.49116 3.54896 7.45345 3.45678C7.41574 3.36461 7.36005 3.28087 7.28963 3.21045C7.21921 3.14003 7.13547 3.08434 7.0433 3.04663C6.95113 3.00892 6.85237 2.98995 6.75278 2.99081C6.6532 2.99168 6.55478 3.01237 6.46328 3.05167C6.37178 3.09098 6.28902 3.14812 6.21983 3.21975L0.969834 8.46975C0.829231 8.6104 0.750244 8.80113 0.750244 9C0.750244 9.19887 0.829231 9.3896 0.969834 9.53025L6.21983 14.7803C6.36129 14.9169 6.55074 14.9925 6.74739 14.9908C6.94403 14.989 7.13214 14.9102 7.2712 14.7711C7.41025 14.6321 7.48913 14.4439 7.49084 14.2473C7.49255 14.0507 7.41695 13.8612 7.28033 13.7197L3.31058 9.75H16.5001C16.699 9.75 16.8898 9.67098 17.0304 9.53033C17.1711 9.38968 17.2501 9.19891 17.2501 9C17.2501 8.80109 17.1711 8.61032 17.0304 8.46967C16.8898 8.32902 16.699 8.25 16.5001 8.25Z" fill="white"/>
</svg>
