<svg width="11" height="11" viewBox="0 0 11 11" fill="none" xmlns="http://www.w3.org/2000/svg">
<path d="M5.50005 10.443C2.77445 10.443 0.557007 8.22555 0.557007 5.49989C0.557007 2.77436 2.77445 0.556984 5.50005 0.556984C8.22564 0.556984 10.4431 2.77436 10.4431 5.49989C10.4431 8.22553 8.22564 10.443 5.50005 10.443ZM5.50005 1.24448C3.15352 1.24448 1.24451 3.15346 1.24451 5.49989C1.24451 7.84646 3.15352 9.75552 5.50005 9.75552C7.84657 9.75552 9.75558 7.84646 9.75558 5.49989C9.75558 3.15346 7.84657 1.24448 5.50005 1.24448Z" fill="#D1D5D7"/>
<path d="M7.15688 7.14456C7.0959 7.14456 7.03418 7.12834 6.9783 7.09429L5.3211 6.08431C5.21871 6.02192 5.15625 5.91067 5.15625 5.79077V3.35036C5.15625 3.16052 5.31016 3.00661 5.5 3.00661C5.68984 3.00661 5.84375 3.16052 5.84375 3.35036V5.59771L7.33608 6.50721C7.4982 6.60601 7.54952 6.81753 7.45072 6.97963C7.38598 7.08589 7.2728 7.14456 7.15688 7.14456Z" fill="#D1D5D7"/>
</svg>
