<svg width="11" height="11" viewBox="0 0 11 11" fill="none" xmlns="http://www.w3.org/2000/svg">
<path d="M1.39614 9.6032C1.42395 9.63103 1.45697 9.65312 1.49332 9.66819C1.52966 9.68325 1.56862 9.69101 1.60797 9.69101C1.64731 9.69101 1.68627 9.68325 1.72262 9.66819C1.75896 9.65312 1.79198 9.63103 1.81979 9.6032L5.49935 5.92363L9.18042 9.6032C9.2366 9.65938 9.31279 9.69094 9.39224 9.69094C9.47169 9.69094 9.54788 9.65938 9.60406 9.6032C9.66024 9.54702 9.6918 9.47082 9.6918 9.39138C9.6918 9.31193 9.66024 9.23573 9.60406 9.17955L5.923 5.49999L9.60256 1.81892C9.65874 1.76275 9.6903 1.68655 9.6903 1.6071C9.6903 1.52765 9.65874 1.45146 9.60256 1.39528C9.54639 1.3391 9.47019 1.30754 9.39074 1.30754C9.31129 1.30754 9.2351 1.3391 9.17892 1.39528L5.49935 5.07634L1.81829 1.39678C1.76102 1.34773 1.68734 1.3221 1.61199 1.32501C1.53664 1.32792 1.46516 1.35916 1.41184 1.41248C1.35852 1.4658 1.32729 1.53727 1.32438 1.61263C1.32147 1.68798 1.3471 1.76165 1.39614 1.81892L5.07571 5.49999L1.39614 9.18105C1.34038 9.23715 1.30908 9.31303 1.30908 9.39212C1.30908 9.47122 1.34038 9.5471 1.39614 9.6032Z" fill="white"/>
</svg>
