<svg width="18" height="18" viewBox="0 0 18 18" fill="none" xmlns="http://www.w3.org/2000/svg">
<path d="M7.87531 11.2501C10.9771 11.2501 13.5004 8.7269 13.5004 5.62507C13.5004 2.52323 10.9771 0 7.87531 0C4.77347 0 2.25024 2.52323 2.25024 5.62507C2.25024 8.7269 4.77347 11.2501 7.87531 11.2501ZM6.37528 5.25005C6.37528 4.21623 7.21647 3.37504 8.25029 3.37504H9.00032C9.20761 3.37504 9.37534 3.54277 9.37534 3.75006C9.37534 3.95734 9.20761 4.12507 9.00032 4.12507H8.25033C7.62995 4.12507 7.12531 4.62971 7.12531 5.25008H8.25033C8.45761 5.25008 8.62534 5.41782 8.62534 5.6251C8.62534 5.83238 8.45761 6.00012 8.25033 6.00012H7.12531C7.12531 6.62049 7.62995 7.12513 8.25033 7.12513H9.00032C9.20761 7.12513 9.37534 7.29286 9.37534 7.50015C9.37534 7.70743 9.20761 7.87516 9.00032 7.87516H8.25033C7.21651 7.87516 6.37532 7.03397 6.37532 6.00015C6.16803 6.00015 6.0003 5.83242 6.0003 5.62514C6.0003 5.41785 6.16803 5.25005 6.37528 5.25005Z" fill="#FB3640"/>
<path d="M14.9999 10.5001H12.7499C12.3353 10.5001 11.9999 10.836 11.9999 11.2501C11.9999 11.6643 12.3354 12.0001 12.7499 12.0001H13.0898L9.69859 15.1492L7.19955 13.2753C6.91464 13.0611 6.51473 13.0775 6.2481 13.3178L2.49805 16.6928C2.19043 16.9697 2.16553 17.4439 2.44239 17.7519C2.71999 18.0592 3.19313 18.0848 3.50149 17.8076L6.79303 14.8453L9.30012 16.725C9.58799 16.9429 9.99229 16.9221 10.2604 16.6749L14.2499 12.9703V13.5002C14.2499 13.9143 14.5854 14.2502 14.9999 14.2502C15.4145 14.2502 15.7499 13.9143 15.7499 13.5002V11.2501C15.75 10.836 15.4145 10.5001 14.9999 10.5001Z" fill="white"/>
</svg>
