<svg width="15" height="15" viewBox="0 0 15 15" fill="none" xmlns="http://www.w3.org/2000/svg">
<path d="M12.525 15H2.475C1.125 15 0 13.86 0 12.495V7.02C0 6.33 0.3 5.655 0.825 5.19L5.85 0.63C6.825 -0.21 8.175 -0.21 9.15 0.63L14.175 5.19C14.7 5.64 15 6.33 15 7.02V12.495C14.925 13.935 13.875 15 12.525 15ZM7.5 1.545C7.275 1.545 7.05 1.62 6.825 1.77L1.8 6.33C1.575 6.48 1.5 6.78 1.5 7.095V12.57C1.5 13.095 1.95 13.56 2.475 13.56H12.45C12.975 13.56 13.425 13.11 13.425 12.57V7.095C13.425 6.795 13.275 6.57 13.125 6.33L8.1 1.77C7.95 1.62 7.725 1.545 7.5 1.545Z" fill="#FB3640"/>
</svg>
