<svg width="15" height="15" viewBox="0 0 15 15" fill="none" xmlns="http://www.w3.org/2000/svg">
<path d="M13.1251 14.5312H9.53162C9.15878 14.5309 8.80132 14.3826 8.53769 14.1189C8.27405 13.8553 8.12576 13.4978 8.12537 13.125V9.53109C8.12576 9.15826 8.27405 8.8008 8.53769 8.53716C8.80132 8.27353 9.15878 8.12524 9.53162 8.12484H13.1251C13.4979 8.12527 13.8553 8.27356 14.119 8.53719C14.3826 8.80082 14.5309 9.15826 14.5313 9.53109V13.125C14.5309 13.4978 14.3826 13.8553 14.119 14.1189C13.8553 14.3825 13.4979 14.5308 13.1251 14.5312ZM13.5938 9.53109C13.5937 9.40682 13.5442 9.28768 13.4563 9.1998C13.3685 9.11193 13.2493 9.06249 13.1251 9.06234H9.53162C9.40734 9.06249 9.2882 9.11193 9.20032 9.1998C9.11245 9.28768 9.06302 9.40682 9.06287 9.53109V13.125C9.06302 13.2493 9.11245 13.3684 9.20032 13.4563C9.2882 13.5442 9.40734 13.5936 9.53162 13.5938H13.1251C13.2493 13.5936 13.3685 13.5442 13.4563 13.4563C13.5442 13.3684 13.5937 13.2493 13.5938 13.125V9.53109Z" fill="white"/>
<path d="M1.875 0.468777H5.46844C5.84128 0.469174 6.19873 0.61746 6.46237 0.881097C6.726 1.14473 6.87429 1.50219 6.87469 1.87503V5.46893C6.87429 5.84177 6.726 6.19923 6.46237 6.46286C6.19873 6.7265 5.84128 6.87479 5.46844 6.87518H1.875C1.50217 6.87476 1.14473 6.72647 0.881097 6.46284C0.617465 6.1992 0.469172 5.84176 0.46875 5.46893V1.87503C0.469172 1.5022 0.617465 1.14476 0.881097 0.881124C1.14473 0.617492 1.50217 0.469199 1.875 0.468777ZM1.40625 5.46893C1.4064 5.59321 1.45583 5.71235 1.54371 5.80023C1.63158 5.8881 1.75073 5.93753 1.875 5.93768H5.46844C5.59271 5.93753 5.71185 5.8881 5.79973 5.80023C5.8876 5.71235 5.93704 5.59321 5.93719 5.46893V1.87503C5.93704 1.75075 5.8876 1.63161 5.79973 1.54374C5.71185 1.45586 5.59271 1.40643 5.46844 1.40628H1.875C1.75073 1.40643 1.63158 1.45586 1.54371 1.54374C1.45583 1.63161 1.4064 1.75075 1.40625 1.87503V5.46893Z" fill="white"/>
<path d="M1.875 8.12484H5.46844C5.84128 8.12524 6.19873 8.27353 6.46237 8.53716C6.726 8.8008 6.87429 9.15826 6.87469 9.53109V13.125C6.87429 13.4978 6.726 13.8553 6.46237 14.1189C6.19873 14.3826 5.84128 14.5309 5.46844 14.5312H1.875C1.50217 14.5308 1.14473 14.3825 0.881097 14.1189C0.617465 13.8553 0.469172 13.4978 0.46875 13.125V9.53109C0.469172 9.15826 0.617465 8.80082 0.881097 8.53719C1.14473 8.27356 1.50217 8.12527 1.875 8.12484ZM1.40625 13.125C1.4064 13.2493 1.45583 13.3684 1.54371 13.4563C1.63158 13.5442 1.75073 13.5936 1.875 13.5938H5.46844C5.59271 13.5936 5.71185 13.5442 5.79973 13.4563C5.8876 13.3684 5.93704 13.2493 5.93719 13.125V9.53109C5.93704 9.40682 5.8876 9.28768 5.79973 9.1998C5.71185 9.11193 5.59271 9.06249 5.46844 9.06234H1.875C1.75073 9.06249 1.63158 9.11193 1.54371 9.1998C1.45583 9.28768 1.4064 9.40682 1.40625 9.53109V13.125Z" fill="white"/>
<path d="M11.3278 6.87518C10.6943 6.87515 10.075 6.68725 9.54826 6.33526C9.02152 5.98327 8.61098 5.48299 8.36855 4.89768C8.12613 4.31237 8.06271 3.66832 8.18632 3.04696C8.30992 2.42561 8.615 1.85486 9.06297 1.40689C9.51094 0.958922 10.0817 0.653846 10.703 0.530241C11.3244 0.406638 11.9684 0.470057 12.5538 0.71248C13.1391 0.954903 13.6393 1.36544 13.9913 1.89219C14.3433 2.41893 14.5312 3.03822 14.5313 3.67175C14.5305 4.52112 14.1928 5.3355 13.5922 5.9361C12.9916 6.53669 12.1772 6.87444 11.3278 6.87518ZM11.3278 1.40628C10.8797 1.40631 10.4416 1.53924 10.0691 1.78824C9.69648 2.03723 9.4061 2.39113 9.23465 2.80516C9.06319 3.21919 9.01837 3.67476 9.10584 4.11427C9.19331 4.55378 9.40914 4.95748 9.72605 5.27432C10.043 5.59116 10.4467 5.80691 10.8862 5.89429C11.3257 5.98167 11.7813 5.93675 12.1953 5.76521C12.6093 5.59367 12.9631 5.30322 13.2121 4.93059C13.461 4.55795 13.5938 4.11987 13.5938 3.67175C13.5931 3.07102 13.3542 2.4951 12.9293 2.07036C12.5045 1.64563 11.9285 1.4068 11.3278 1.40628Z" fill="white"/>
</svg>
