<?xml version="1.0" standalone="no"?>
<!DOCTYPE svg PUBLIC "-//W3C//DTD SVG 20010904//EN"
 "http://www.w3.org/TR/2001/REC-SVG-20010904/DTD/svg10.dtd">
<svg version="1.0" xmlns="http://www.w3.org/2000/svg"
 width="128.000000pt" height="128.000000pt" viewBox="0 0 128.000000 128.000000"
 preserveAspectRatio="xMidYMid meet">
<metadata>
Created by potrace 1.16, written by Peter Selinger 2001-2019
</metadata>
<g transform="translate(0.000000,128.000000) scale(0.100000,-0.100000)"
fill="#000000" stroke="none">
<path d="M556 1259 c-68 -53 -74 -149 -14 -204 l34 -32 -28 0 c-71 0 -118 -63
-119 -162 -1 -63 12 -94 48 -110 31 -14 295 -14 326 0 36 16 49 47 48 110 -1
100 -48 162 -121 162 -28 0 -29 1 -10 14 71 50 65 182 -10 227 -41 23 -121 21
-154 -5z"/>
<path d="M353 708 c-69 -76 -87 -139 -44 -153 29 -9 43 2 84 59 41 60 46 90
18 106 -28 14 -35 13 -58 -12z"/>
<path d="M857 712 c-24 -26 -22 -32 23 -94 44 -61 62 -73 91 -58 28 16 23 49
-16 105 -51 70 -69 79 -98 47z"/>
<path d="M129 517 c-68 -45 -77 -148 -18 -207 l31 -30 -34 0 c-65 0 -108 -67
-108 -168 0 -51 4 -63 26 -86 27 -26 27 -26 184 -26 155 0 158 0 182 25 30 30
39 68 31 121 -18 115 -87 160 -178 117 -32 -15 -37 -15 -67 -1 l-33 16 36 -5
c50 -7 103 12 134 48 30 37 35 115 9 159 -37 62 -131 80 -195 37z"/>
<path d="M987 519 c-71 -54 -76 -153 -11 -214 l27 -25 -34 0 c-57 -1 -99 -50
-112 -134 -8 -53 1 -91 31 -121 24 -25 27 -25 182 -25 157 0 157 0 184 26 22
23 26 35 26 86 0 105 -43 168 -114 168 -40 0 -40 0 -18 16 33 23 52 67 52 120
0 41 -5 51 -39 85 -35 36 -43 39 -92 39 -39 -1 -62 -7 -82 -21z"/>
<path d="M492 158 c-18 -18 -14 -56 7 -68 11 -5 76 -10 145 -10 100 0 128 3
140 16 20 20 20 38 0 58 -12 13 -41 16 -148 16 -89 0 -136 -4 -144 -12z"/>
</g>
</svg>
