<svg version="1.1" id="Layer_1" xmlns="http://www.w3.org/2000/svg" xmlns:xlink="http://www.w3.org/1999/xlink" x="0px" y="0px"
	 width="100%" viewBox="0 0 1226 588" enable-background="new 0 0 1226 588" xml:space="preserve">
<path fill="#FFFFFF" opacity="1.000000" stroke="none" 
	d="
M737.000000,589.000000 
	C492.833344,589.000000 249.166702,588.989868 5.500083,589.093323 
	C1.750997,589.094910 0.904285,588.249451 0.906351,584.500000 
	C1.012683,391.500061 1.012683,198.500076 0.906375,5.500130 
	C0.904310,1.751010 1.750662,0.906106 5.499944,0.907021 
	C411.166565,1.006055 816.833252,1.006051 1222.499878,0.907061 
	C1226.248535,0.906146 1227.095825,1.750253 1227.093750,5.499899 
	C1226.987427,198.499832 1226.987305,391.499817 1227.093628,584.499756 
	C1227.095703,588.248535 1226.250122,589.096436 1222.500122,589.093872 
	C1060.833496,588.984802 899.166748,589.000000 737.000000,589.000000 
z"/>
<path fill="#808080" opacity="1.000000" stroke="none" 
	d="
M273.004028,411.000000 
	C277.666626,411.000885 281.833008,411.061218 285.996429,410.976562 
	C287.968506,410.936493 288.798157,411.386108 289.075867,413.672455 
	C291.269745,431.734009 293.650116,449.773163 296.016632,467.813477 
	C298.339966,485.524689 300.707336,503.230133 303.097809,520.932373 
	C303.175690,521.509155 303.718262,522.023254 304.149200,522.741577 
	C307.585754,519.653992 305.945923,515.468567 306.655762,512.039612 
	C308.180481,504.674255 308.142395,496.999481 309.037476,489.486328 
	C310.396484,478.078766 311.291565,466.625244 312.689880,455.216553 
	C313.607788,447.727783 314.714935,440.186646 314.922882,432.634247 
	C315.314056,418.427948 322.664551,410.883545 336.976288,411.059845 
	C342.397400,411.126617 347.885468,410.105103 353.255219,411.948486 
	C361.347321,414.726410 365.178070,420.149200 366.089172,428.638641 
	C367.346924,440.358124 369.290466,452.002441 370.812561,463.695557 
	C371.977753,472.646667 372.949738,481.622986 373.999023,490.589081 
	C375.029266,499.392181 375.923706,508.215149 377.227783,516.977295 
	C377.394318,518.096558 377.138245,520.900452 379.417633,520.672913 
	C381.109680,520.504028 380.855347,518.435486 381.031952,516.932922 
	C382.640228,503.250671 383.777771,489.520081 385.833588,475.880249 
	C387.325989,465.978516 387.894012,455.940491 389.022003,445.979950 
	C390.239594,435.228149 391.700256,424.503601 392.883484,413.748291 
	C393.117981,411.616913 393.806702,410.940186 395.905243,410.964722 
	C403.901245,411.058350 411.899963,411.072632 419.895477,410.959534 
	C422.270782,410.925964 423.304626,411.696136 423.000488,414.093048 
	C422.216034,420.275635 421.515900,426.469696 420.660645,432.642334 
	C419.155060,443.509033 417.558441,454.363098 416.000946,465.222595 
	C414.071655,478.674561 412.102478,492.120972 410.227722,505.580536 
	C408.757812,516.133301 407.303436,526.690125 406.027771,537.267456 
	C404.586578,549.216980 402.468292,554.514954 387.005463,556.221924 
	C380.820160,556.904724 374.876495,556.704407 368.875702,555.947021 
	C357.905853,554.562439 350.586945,549.533447 349.916473,534.587097 
	C349.394409,522.949463 347.682068,511.399353 346.139709,499.842468 
	C344.792389,489.747192 344.058899,479.570953 342.973602,469.439087 
	C342.719482,467.066528 342.140137,464.728790 341.622162,461.891510 
	C338.562531,465.166016 339.903625,468.992859 339.317383,472.182343 
	C337.600006,481.526154 337.136017,491.093536 335.970886,500.547424 
	C334.487885,512.580627 332.782013,524.586243 331.218903,536.609802 
	C331.005951,538.248230 331.115295,539.925903 330.986267,541.578430 
	C330.453522,548.401001 325.476898,553.967529 318.575378,554.914856 
	C309.906799,556.104736 301.280548,556.145325 292.462494,555.285828 
	C283.654510,554.427368 277.141052,546.857788 275.936096,537.365784 
	C274.225494,523.890564 271.987762,510.483185 270.107544,497.028320 
	C268.315399,484.203461 266.796082,471.340088 264.966644,458.520813 
	C263.140320,445.723358 261.076813,432.959808 259.124146,420.180359 
	C259.049133,419.689270 259.050598,419.186890 259.007507,418.690521 
	C258.340027,411.000610 258.339691,411.000610 266.008789,411.000031 
	C268.174713,410.999878 270.340668,411.000000 273.004028,411.000000 
z"/>
<path fill="#808080" opacity="1.000000" stroke="none" 
	d="
M678.499512,137.098450 
	C677.366455,140.779663 679.727539,145.584106 677.102600,147.314011 
	C674.514221,149.019836 670.055603,147.971008 666.416992,147.984467 
	C655.000122,148.026703 655.000000,148.000015 655.000000,136.719223 
	C655.000000,130.056091 655.011719,123.392944 654.997070,116.729843 
	C654.978271,108.206940 648.889099,102.015587 640.466553,102.006065 
	C622.809265,101.986115 605.145203,102.284279 587.497864,101.865410 
	C580.043640,101.688477 572.971680,109.272995 572.993469,116.319138 
	C573.021790,125.480850 572.882751,134.645035 573.064331,143.803238 
	C573.126526,146.935883 572.421814,148.273956 568.985596,148.073898 
	C564.005188,147.783936 558.982483,147.782196 554.002319,148.074356 
	C550.553162,148.276657 549.610962,146.924591 549.966187,143.793396 
	C550.152710,142.149536 550.155212,140.444809 549.948181,138.804489 
	C549.495728,135.218765 547.378967,132.999100 543.733093,133.080200 
	C540.477173,133.152603 537.567261,134.243652 536.966492,138.177765 
	C536.821045,139.130112 536.314514,140.021851 536.095642,140.969574 
	C535.584839,143.181335 537.160645,146.426987 535.163635,147.476486 
	C533.050842,148.586761 529.989075,148.054199 527.351135,147.965225 
	C523.068848,147.820755 517.518555,149.817795 514.850037,147.152557 
	C512.180542,144.486374 514.105164,138.934433 514.036743,134.653656 
	C513.908936,126.659943 513.719177,118.650787 514.058716,110.669479 
	C514.759583,94.195671 520.778992,79.832458 531.890930,67.584084 
	C541.720154,56.749603 553.077637,48.422234 567.514893,44.773853 
	C573.252502,43.323921 579.054871,42.125092 584.930908,42.069572 
	C604.418762,41.885429 623.915100,41.712929 643.397461,42.088421 
	C659.766174,42.403900 674.263794,48.091602 687.108398,58.482838 
	C701.689270,70.278763 710.714905,85.262375 713.649170,103.596512 
	C715.882141,117.548523 715.004089,131.736786 714.998657,145.835815 
	C714.997742,148.134796 713.481323,147.997253 711.956848,147.997253 
	C706.459778,147.997208 700.955566,147.826645 695.467957,148.054413 
	C691.185913,148.232132 690.588928,144.899002 691.379822,142.666855 
	C693.009766,138.066498 690.695679,135.252518 687.651184,133.486267 
	C684.098938,131.425354 681.052368,133.773682 678.499512,137.098450 
z"/>
<path fill="#808080" opacity="1.000000" stroke="none" 
	d="
M1067.000000,433.000061 
	C1067.000000,466.657013 1067.115723,499.814636 1066.925415,532.970520 
	C1066.872314,542.225708 1062.771362,549.556274 1054.410156,554.243347 
	C1052.143555,555.513977 1049.926025,556.078552 1047.363281,556.034424 
	C1041.200195,555.928101 1035.034180,556.001160 1028.869263,555.999756 
	C1020.110535,555.997803 1012.272278,549.463257 1009.952271,540.863953 
	C1001.409851,509.200378 992.706482,477.580200 984.049316,445.947632 
	C983.545105,444.105286 983.273499,442.147308 981.000000,439.331268 
	C981.000000,442.229767 981.000000,443.866302 981.000000,445.502838 
	C981.000000,480.325989 980.906311,515.149719 981.106873,549.971680 
	C981.135132,554.871155 979.649048,556.351135 974.873535,556.093445 
	C968.062012,555.725830 961.213440,555.891052 954.385681,556.046997 
	C951.192261,556.119934 949.946838,555.034607 949.953430,551.734375 
	C950.028503,514.245544 949.959900,476.756317 950.064880,439.267578 
	C950.075378,435.526520 950.754517,431.743195 951.502991,428.056580 
	C953.841919,416.535492 962.245483,411.980011 972.783752,411.184937 
	C980.101013,410.632874 987.576355,410.168121 994.864990,412.817200 
	C1001.040527,415.061737 1005.318787,418.732758 1007.073669,425.106842 
	C1012.053406,443.194244 1017.035156,461.281189 1021.954468,479.385040 
	C1026.019287,494.343872 1030.015503,509.321381 1033.976562,524.307983 
	C1034.300537,525.533508 1034.737549,526.984375 1035.935791,526.678223 
	C1037.902466,526.175720 1036.951660,524.171814 1036.953857,522.870972 
	C1037.011597,487.548065 1037.098633,452.224426 1036.882812,416.902740 
	C1036.853882,412.161316 1037.857666,410.513702 1042.812988,410.882355 
	C1049.275391,411.363098 1055.809082,411.200348 1062.295166,410.920990 
	C1065.890991,410.766174 1067.347412,411.574066 1067.092773,415.511566 
	C1066.728027,421.152832 1067.000000,426.835266 1067.000000,433.000061 
z"/>
<path fill="#808080" opacity="1.000000" stroke="none" 
	d="
M799.082275,448.951050 
	C800.399719,450.998444 799.983459,452.895447 799.985474,454.691437 
	C800.008484,474.845337 800.198425,495.001770 799.945251,515.152527 
	C799.682190,536.094849 781.390442,556.765320 759.146912,556.142883 
	C736.179443,555.500183 713.178955,555.888062 690.195312,556.093628 
	C685.556702,556.135132 683.866760,555.064209 683.888611,550.048645 
	C684.080811,505.910675 683.995667,461.771515 684.004578,417.632690 
	C684.005920,411.017456 684.046021,411.001526 690.719543,411.000854 
	C713.038757,410.998596 735.358215,410.940857 757.677185,411.016724 
	C779.734070,411.091705 795.783203,427.420013 799.082275,448.951050 
z"/>
<path fill="#808080" opacity="1.000000" stroke="none" 
	d="
M639.999756,411.000000 
	C645.499390,411.000031 650.520264,411.282410 655.492188,410.910431 
	C659.441956,410.614899 660.247314,412.122955 660.077393,415.711670 
	C659.793884,421.697937 659.779480,427.718536 660.082031,433.702942 
	C660.264893,437.318573 659.000000,438.106110 655.583069,438.076324 
	C637.085388,437.915161 618.585571,437.994537 600.086487,438.002258 
	C590.832153,438.006165 583.009766,445.717896 583.003601,454.856873 
	C582.991516,472.689331 582.979431,490.521790 583.007080,508.354218 
	C583.026184,520.687073 591.395325,528.999939 603.711365,529.000000 
	C610.211060,529.000000 616.738159,528.622864 623.203552,529.093506 
	C631.667603,529.709656 639.817139,523.251221 639.989014,512.585693 
	C640.053406,508.586945 639.834534,504.577393 640.049194,500.589172 
	C640.236450,497.109100 638.933167,495.877075 635.433594,495.941040 
	C625.937256,496.114563 616.433838,495.896759 606.937134,496.060822 
	C603.987000,496.111786 602.799988,495.448456 602.925415,492.223969 
	C603.177917,485.734131 603.105042,479.225037 602.950256,472.729065 
	C602.886475,470.052490 603.473450,468.918243 606.481750,468.936951 
	C626.479980,469.061249 646.479736,469.058319 666.478027,468.938873 
	C669.429138,468.921265 670.070068,469.963470 670.051880,472.687927 
	C669.945068,488.686432 670.664917,504.721100 669.822998,520.675903 
	C668.869202,538.750732 651.975342,555.714417 633.784729,555.964661 
	C620.621216,556.145813 607.394653,555.213013 594.301025,556.186340 
	C575.138550,557.610718 561.184570,542.263855 555.981079,528.408264 
	C553.113037,520.771240 552.053345,512.834534 552.020447,504.750366 
	C551.952576,488.084808 551.798462,471.415527 552.064758,454.753967 
	C552.272400,441.762543 557.070496,430.377563 566.356934,421.270172 
	C573.224731,414.534760 581.281738,410.541077 591.506470,410.865570 
	C607.489563,411.372864 623.500610,411.000000 639.999756,411.000000 
z"/>
<path fill="#00FF00" opacity="1.000000" stroke="none" 
	d="
M655.000000,180.000946 
	C655.000183,174.669403 655.124878,169.833008 654.948425,165.007614 
	C654.859253,162.569717 655.680359,161.894974 658.051514,161.950256 
	C664.379456,162.097794 670.723083,161.788391 677.040527,162.084793 
	C680.457764,162.245102 681.241272,161.045212 681.064148,157.896500 
	C680.811890,153.412079 681.022827,148.902679 680.987305,144.404358 
	C680.975525,142.908875 681.046570,141.497101 681.925720,140.181580 
	C682.893494,138.733429 684.054993,137.818466 685.846436,138.409454 
	C687.348450,138.904938 688.117859,139.790421 688.058960,141.644867 
	C687.889832,146.971191 688.212708,152.317963 687.923157,157.633881 
	C687.738403,161.026230 688.542114,162.293625 692.198303,162.090027 
	C698.177917,161.757019 704.203003,162.243256 710.182922,161.912750 
	C714.038635,161.699631 715.109863,162.761414 715.098450,166.742996 
	C714.950073,218.560013 715.000000,270.377563 715.000000,322.195007 
	C715.000000,332.000000 715.000000,331.999908 705.253052,332.000031 
	C700.421204,332.000092 695.586060,332.105499 690.758972,331.953918 
	C688.535095,331.884064 687.905579,332.641785 687.957031,334.799683 
	C688.088013,340.294891 688.017212,345.795349 687.991333,351.293549 
	C687.981445,353.388153 688.538208,355.999634 685.175903,355.958893 
	C682.071045,355.921265 680.937256,354.012146 680.979553,351.055786 
	C681.053406,345.891785 680.850159,340.719818 681.059937,335.563293 
	C681.173279,332.776978 680.386780,331.833008 677.502808,331.934082 
	C671.345581,332.149933 665.166870,331.804169 659.014343,332.078705 
	C655.702698,332.226501 654.910889,331.187195 654.925964,327.955048 
	C655.055054,300.297455 655.000000,272.639008 655.000000,244.980835 
	C655.000000,223.487442 655.000000,201.994034 655.000000,180.000946 
z"/>
<path fill="#FF0000" opacity="1.000000" stroke="none" 
	d="
M514.000366,165.178864 
	C513.544006,161.834061 515.405823,161.963623 517.357544,161.981277 
	C523.185730,162.034058 529.048340,161.615097 534.832825,162.120758 
	C539.535278,162.531815 540.395142,160.739487 540.080872,156.600800 
	C539.728821,151.964600 540.145996,147.274673 539.941650,142.620712 
	C539.831116,140.104706 540.545471,138.246399 543.063660,138.121155 
	C545.893799,137.980392 547.028076,139.942413 547.009521,142.669083 
	C546.974426,147.831375 547.171814,153.002014 546.933960,158.153564 
	C546.796631,161.128021 547.483704,162.228485 550.712463,162.083328 
	C557.027954,161.799438 563.368286,162.112701 569.692078,161.945511 
	C572.257996,161.877686 573.060974,162.581177 573.057190,165.246536 
	C572.980530,219.702835 572.973633,274.159302 573.068909,328.615570 
	C573.074280,331.655884 571.962280,332.124481 569.330261,332.053192 
	C563.173035,331.886444 557.002625,332.155853 550.848999,331.932678 
	C547.882874,331.825104 546.729187,332.472198 546.919312,335.710266 
	C547.221375,340.855072 546.917542,346.032471 547.034729,351.192352 
	C547.092285,353.725586 546.043396,355.736206 543.701660,355.842010 
	C540.956055,355.966064 539.939392,353.792664 539.979675,351.109467 
	C540.052185,346.281097 539.769226,341.436096 540.076233,336.626221 
	C540.304077,333.056274 539.521484,331.619507 535.563354,331.898895 
	C529.929321,332.296661 524.232849,331.764374 518.588867,332.084473 
	C514.945251,332.291077 513.837646,331.389771 513.894775,327.531555 
	C514.140930,310.881866 514.000000,294.226440 514.000000,277.573120 
	C514.000000,240.269684 514.000000,202.966248 514.000366,165.178864 
z"/>
<path fill="#808080" opacity="1.000000" stroke="none" 
	d="
M75.010513,518.000000 
	C70.054321,518.258484 64.484192,516.214111 61.438404,518.839417 
	C58.585926,521.298096 58.261978,526.755249 56.962025,530.935364 
	C54.830624,537.789062 52.771141,544.665894 50.760838,551.556152 
	C49.901596,554.501221 48.769341,556.302063 45.006660,556.116394 
	C37.198231,555.730896 29.356043,555.911255 21.530779,556.041748 
	C18.274067,556.096008 17.742712,555.416748 18.812349,552.083435 
	C26.044119,529.546936 32.972221,506.913208 40.026661,484.319733 
	C45.960052,465.316711 52.509590,446.480286 57.652145,427.266541 
	C60.389320,417.039795 65.781212,411.461426 76.021912,411.181427 
	C85.382553,410.925476 94.852028,409.878479 104.082893,412.898102 
	C108.699760,414.408356 111.635567,417.216095 113.058136,421.844299 
	C124.084747,457.718658 135.144104,493.582947 146.212341,529.444458 
	C148.475815,536.778259 150.571640,544.178894 153.229614,551.369507 
	C154.574234,555.007141 154.075409,556.127563 150.162003,556.047302 
	C142.337860,555.886780 134.505585,555.886353 126.681961,556.059204 
	C123.831345,556.122192 122.707878,555.006714 121.920090,552.377502 
	C118.828697,542.059998 115.337181,531.860657 112.353226,521.513855 
	C111.517273,518.615234 110.179138,517.932922 107.483452,517.958557 
	C96.825798,518.060120 86.166603,518.000122 75.010513,518.000000 
z"/>
<path fill="#808080" opacity="1.000000" stroke="none" 
	d="
M917.051758,482.901245 
	C923.067261,502.485626 929.034485,521.664612 934.991394,540.846802 
	C936.105774,544.435425 936.942078,548.132019 938.339172,551.604858 
	C939.668030,554.908142 939.080261,556.115845 935.388367,556.045959 
	C927.391296,555.894531 919.387146,555.893677 911.390869,556.062805 
	C908.959839,556.114197 907.725952,555.231689 907.071716,553.057678 
	C904.059204,543.048706 900.846863,533.094788 898.096375,523.014771 
	C897.101562,519.369019 895.647156,517.850220 891.692078,517.913818 
	C877.862549,518.136353 864.026062,518.096619 850.194946,517.928650 
	C846.945435,517.889221 845.722290,518.974182 844.818115,522.098389 
	C841.867981,532.292419 838.304626,542.308838 835.347046,552.501038 
	C834.501465,555.414978 833.143433,556.077942 830.460876,556.040100 
	C822.462585,555.927185 814.459290,555.884949 806.462891,556.052246 
	C802.951172,556.125671 802.836121,555.137878 803.836304,552.015320 
	C811.360352,528.524292 818.654785,504.959686 826.007263,481.413788 
	C831.653320,463.332855 837.915161,445.410553 842.665039,427.096619 
	C845.322998,416.848633 851.149170,411.831573 860.855957,411.275635 
	C870.033630,410.749939 879.325867,409.972198 888.448975,412.738922 
	C893.501709,414.271240 896.580261,417.119080 898.137146,422.181427 
	C904.329407,442.315918 910.697144,462.396484 917.051758,482.901245 
z"/>
<path fill="#808080" opacity="1.000000" stroke="none" 
	d="
M494.000000,556.000000 
	C481.334747,556.000000 469.154053,555.623108 457.009155,556.120300 
	C447.463623,556.511230 436.982910,545.272766 436.989929,536.551880 
	C437.016266,503.889008 436.612305,471.219574 437.167603,438.566132 
	C437.437042,422.721283 447.384857,410.867523 465.252136,410.969360 
	C487.582153,411.096649 509.914886,411.133911 532.243042,410.892609 
	C536.989929,410.841309 538.371277,412.347046 538.084961,416.900574 
	C537.730164,422.544281 537.817261,428.235382 538.069519,433.890137 
	C538.216003,437.171814 537.173401,438.094330 533.897644,438.071411 
	C513.567627,437.929047 493.234863,438.123230 472.906219,437.904663 
	C468.387482,437.856079 466.623688,438.967682 466.899994,443.751617 
	C467.293365,450.561462 467.170746,457.416870 466.933167,464.241119 
	C466.800964,468.039001 468.262390,469.090027 471.895233,469.063599 
	C490.725372,468.926453 509.558136,469.106293 528.387268,468.909607 
	C532.121887,468.870605 533.282410,469.823334 533.088501,473.601288 
	C532.764282,479.917267 532.809204,486.269989 533.075928,492.591339 
	C533.221313,496.036926 532.280884,497.120270 528.695984,497.084808 
	C510.199982,496.901794 491.699493,497.133972 473.204468,496.906036 
	C468.570496,496.848907 466.602539,497.897797 466.892670,502.953857 
	C467.312042,510.262268 467.171265,517.618469 466.923859,524.942566 
	C466.810333,528.303955 467.959473,529.087402 471.154236,529.066711 
	C491.484344,528.934998 511.817261,529.131226 532.145569,528.900024 
	C536.744446,528.847656 538.431030,530.097961 538.088806,534.804260 
	C537.703003,540.108887 537.735840,545.480591 538.085876,550.790222 
	C538.352234,554.830261 537.323059,556.216614 532.992798,556.111450 
	C520.168518,555.800049 507.331818,556.000000 494.000000,556.000000 
z"/>
<path fill="#FF0000" opacity="1.000000" stroke="none" 
	d="
M754.982544,332.000000 
	C749.516296,331.912292 742.831909,333.740845 740.029175,331.232361 
	C736.816101,328.356659 739.055542,321.547791 739.043396,316.459656 
	C738.960449,281.829346 739.059753,247.198517 738.911743,212.568665 
	C738.896179,208.919800 739.638184,207.685608 743.486145,207.900803 
	C749.959106,208.262802 756.469177,207.902588 762.959045,208.050293 
	C765.340271,208.104507 766.134827,207.409424 766.051270,204.986053 
	C765.879272,199.997208 766.038696,194.997833 765.982422,190.003693 
	C765.957520,187.797470 766.195679,186.128342 769.041321,185.949081 
	C771.958252,185.765305 772.858704,187.516479 772.937256,189.740906 
	C773.113342,194.729553 773.143921,199.734467 772.940796,204.720825 
	C772.833313,207.360855 773.635681,208.136581 776.276367,208.060699 
	C782.764221,207.874283 789.264832,208.128632 795.752441,207.938507 
	C798.427612,207.860092 799.055908,208.748657 799.051086,211.305832 
	C798.977234,250.431488 798.977966,289.557343 799.049805,328.683014 
	C799.054443,331.220306 798.459167,332.143524 795.763550,332.062683 
	C789.276184,331.868164 782.775879,332.116699 776.287292,331.943054 
	C773.685852,331.873444 772.820984,332.625763 772.943237,335.268280 
	C773.150757,339.753967 773.076904,344.258087 772.968445,348.750763 
	C772.911560,351.103424 773.241516,353.832306 769.556580,354.021759 
	C765.601013,354.225098 765.980103,351.551025 765.993652,349.008698 
	C766.016724,344.679993 765.781860,340.336487 766.070862,336.027039 
	C766.291321,332.739990 765.242004,331.561798 761.966736,331.952118 
	C759.832703,332.206451 757.643738,332.000031 754.982544,332.000000 
z"/>
<path fill="#808080" opacity="1.000000" stroke="none" 
	d="
M1159.953857,443.885315 
	C1164.363892,433.627380 1168.710571,423.743774 1173.106567,413.882080 
	C1173.986084,411.908905 1175.478760,410.936554 1177.807983,410.963287 
	C1186.301392,411.060944 1194.796753,410.995483 1203.291382,411.005920 
	C1206.778687,411.010223 1207.670654,412.304626 1206.129272,415.687531 
	C1197.034302,435.647156 1188.074585,455.668549 1179.086914,475.676941 
	C1176.203979,482.094604 1173.202881,488.467224 1170.580200,494.990845 
	C1168.791016,499.441132 1166.185425,503.035431 1161.819214,504.980438 
	C1159.422852,506.047913 1158.927490,507.536407 1158.948975,509.942719 
	C1159.059204,522.267273 1159.000122,534.593323 1159.000000,546.918884 
	C1158.999878,556.000000 1158.999756,556.000061 1149.731934,556.000000 
	C1144.068848,555.999939 1138.397583,555.814636 1132.745483,556.064514 
	C1128.934204,556.233032 1127.893799,554.714172 1127.936035,551.094971 
	C1128.095459,537.438782 1127.971069,523.779480 1128.028809,510.121704 
	C1128.038330,507.856903 1127.957275,506.395691 1125.151367,505.449371 
	C1118.406250,503.174622 1116.226196,496.730438 1113.534790,490.996948 
	C1108.037842,479.287079 1102.721069,467.492706 1097.326660,455.734741 
	C1091.178345,442.333740 1085.106201,428.896790 1078.823975,415.558838 
	C1077.082031,411.860596 1078.090332,410.893555 1081.862305,410.957642 
	C1090.021484,411.096222 1098.186035,411.085999 1106.345459,410.953491 
	C1109.176270,410.907501 1110.976074,411.781372 1112.190430,414.445099 
	C1120.749512,433.219818 1129.402588,451.951752 1138.021729,470.699188 
	C1138.500122,471.739777 1138.904541,472.815765 1139.411255,473.841797 
	C1140.210693,475.460968 1140.826050,477.163391 1143.263184,477.028351 
	C1145.730225,476.891663 1146.103271,474.890686 1146.803223,473.366608 
	C1151.243042,463.699707 1155.554321,453.973816 1159.953857,443.885315 
z"/>
<path fill="#808080" opacity="1.000000" stroke="none" 
	d="
M227.000000,529.000000 
	C236.663605,529.000000 245.832260,529.177856 254.988525,528.918701 
	C259.043335,528.803894 260.236328,530.258362 260.069946,534.143066 
	C259.806427,540.296448 259.890259,546.472107 260.049438,552.632568 
	C260.116760,555.239319 259.294556,556.060913 256.658264,556.049561 
	C235.332443,555.957336 213.913040,557.221924 192.709137,555.611328 
	C175.583694,554.310608 167.359467,546.515991 166.121811,529.071350 
	C163.434494,491.193481 165.654709,453.230286 164.961105,415.310699 
	C164.901443,412.048431 166.105698,410.877045 169.340897,410.952484 
	C176.168228,411.111755 183.015305,411.261292 189.828293,410.910156 
	C194.530838,410.667786 196.140579,412.010193 196.110565,416.982147 
	C195.901352,451.635956 195.997498,486.291687 196.002090,520.946777 
	C196.003021,527.903198 197.089310,528.990295 204.007538,528.998108 
	C211.505020,529.006531 219.002518,529.000000 227.000000,529.000000 
z"/>
<path fill="#00FF00" opacity="1.000000" stroke="none" 
	d="
M463.000000,339.066498 
	C462.999939,343.720520 462.942444,347.884125 463.019318,352.045197 
	C463.073792,354.992340 461.948242,356.912537 458.839661,356.959930 
	C455.483154,357.011108 456.016296,354.414673 456.007660,352.313751 
	C455.985016,346.819305 455.828461,341.317230 456.068207,335.833191 
	C456.199188,332.836670 455.481506,331.784760 452.276062,331.917145 
	C445.627350,332.191711 438.956696,331.889282 432.300812,332.055389 
	C429.724213,332.119720 428.928864,331.402100 428.941315,328.747406 
	C429.045349,306.603302 429.038269,284.458344 428.948547,262.314117 
	C428.938232,259.770233 429.550232,258.862915 432.239563,258.937469 
	C439.060852,259.126617 445.893707,258.886261 452.715942,259.057434 
	C455.322998,259.122864 456.147278,258.362732 456.058258,255.728897 
	C455.867126,250.074341 456.008179,244.408829 455.996002,238.747833 
	C455.990936,236.381012 455.654358,233.938522 459.299957,233.967590 
	C462.950073,233.996735 462.953491,236.519485 462.980377,238.993378 
	C463.041901,244.653732 463.109833,250.318329 462.948883,255.974777 
	C462.880432,258.380524 463.631989,259.106659 466.029663,259.051117 
	C472.519714,258.900635 479.016754,259.071869 485.508423,258.961609 
	C487.816132,258.922424 489.084686,259.122101 489.068146,262.061188 
	C488.942657,284.371582 488.964020,306.683075 489.050293,328.993866 
	C489.059662,331.417542 488.326050,332.117432 485.952271,332.049438 
	C480.462280,331.892242 474.964661,331.999756 469.470154,332.000000 
	C463.001495,332.000305 463.001495,332.000366 463.000000,339.066498 
z"/>
<path fill="#808080" opacity="1.000000" stroke="none" 
	d="
M595.199829,198.054489 
	C612.301575,193.572174 629.023376,189.248566 645.651489,184.590698 
	C649.083923,183.629211 650.081665,184.062958 650.047607,187.660217 
	C649.924927,200.633575 649.921387,213.609650 650.066772,226.582535 
	C650.094910,229.089798 649.116821,229.971588 646.933594,230.562241 
	C624.918457,236.518356 602.911743,242.506424 580.934265,248.599579 
	C578.539978,249.263397 577.983093,248.575363 577.988403,246.380524 
	C578.021301,232.740753 578.018372,219.100830 577.992126,205.461029 
	C577.987915,203.258865 578.897400,202.410110 581.138000,201.900833 
	C585.734802,200.856018 590.439880,200.078217 595.199829,198.054489 
z"/>
<path fill="#FFFFFF" opacity="1.000000" stroke="none" 
	d="
M770.000000,496.998596 
	C770.000000,501.162018 770.000183,504.825867 769.999939,508.489716 
	C769.999146,520.601013 761.687866,528.998962 749.700073,528.999878 
	C739.541199,529.000610 729.380737,528.897522 719.224487,529.061584 
	C716.137329,529.111450 714.902710,528.481201 714.920593,525.019165 
	C715.063538,497.374481 715.054932,469.728455 714.928528,442.083588 
	C714.913452,438.785767 715.876160,437.867920 719.121887,437.928680 
	C729.443665,438.122009 739.775513,438.180725 750.095459,437.944733 
	C758.868286,437.744110 770.527039,448.371460 770.129700,458.033875 
	C769.603271,470.835693 770.000000,483.675507 770.000000,496.998596 
z"/>
<path fill="#FFFFFF" opacity="1.000000" stroke="none" 
	d="
M87.958511,441.317566 
	C92.359894,456.210327 96.625557,470.737762 101.188118,485.171295 
	C102.061142,487.933075 102.302086,489.082947 98.895615,489.037170 
	C90.257660,488.921173 81.616585,488.945648 72.977943,489.032166 
	C70.494705,489.057037 69.990875,488.624634 70.837532,485.988312 
	C74.569939,474.366486 77.997955,462.646790 81.522293,450.958344 
	C82.509308,447.684875 83.324570,444.353729 84.450714,441.130096 
	C85.288971,438.730560 86.605118,438.318512 87.958511,441.317566 
z"/>
<path fill="#FFFFFF" opacity="1.000000" stroke="none" 
	d="
M884.052368,477.904022 
	C888.225342,489.000000 888.225342,489.006561 877.262085,488.997620 
	C870.285767,488.991913 863.309509,488.966949 856.333252,488.932556 
	C856.016907,488.931000 855.701477,488.750763 855.010498,488.538574 
	C859.354614,474.412506 863.609497,460.258392 868.130066,446.189697 
	C868.885925,443.837372 868.462036,439.514099 870.937073,439.542664 
	C873.912598,439.577026 873.397827,443.746185 874.173279,446.289307 
	C877.354553,456.721375 880.709229,467.100616 884.052368,477.904022 
z"/>
</svg>