<svg id="Layer_1" enable-background="new 0 0 32 32" height="512" viewBox="0 0 32 32" width="512" xmlns="http://www.w3.org/2000/svg"><path d="m14.812 11.705h2.377c.908 0 1.647.739 1.647 1.647 0 .552.447 1 1 1s1-.448 1-1c0-2.011-1.637-3.647-3.647-3.647h-.189v-.705c0-.552-.448-1-1-1s-1 .448-1 1v.705h-.188c-2.011 0-3.647 1.636-3.647 3.647s1.635 3.648 3.647 3.648h2.377c.908 0 1.647.739 1.647 1.647s-.739 1.647-1.647 1.647h-2.377c-.908 0-1.647-.739-1.647-1.647 0-.552-.448-1-1-1s-1 .448-1 1c0 2.011 1.636 3.647 3.647 3.647h.188v.706c0 .552.448 1 1 1s1-.448 1-1v-.705h.188c2.011 0 3.647-1.636 3.647-3.647s-1.636-3.648-3.647-3.648h-2.377c-.908 0-1.647-.739-1.647-1.647s.739-1.648 1.648-1.648z"/><path d="m6.101 25.899c2.672 2.672 6.283 4.09 9.937 4.09 1.937 0 3.885-.398 5.71-1.22.504-.227.729-.819.502-1.322-.228-.504-.82-.729-1.322-.502-4.517 2.032-9.907 1.044-13.412-2.46-4.078-4.076-4.59-10.441-1.523-15.096l.017.234c.039.526.478.927.997.927.024 0 .049-.001.074-.002.551-.041.965-.52.925-1.07l-.2-2.743c-.041-.551-.519-.956-1.071-.925l-2.743.2c-.551.041-.965.52-.925 1.07s.515.95 1.07.925l.411-.03c-3.814 5.456-3.296 13.076 1.553 17.924z"/><path d="m25.899 6.101c-4.087-4.089-10.375-5.242-15.646-2.871-.504.227-.729.819-.502 1.322s.82.727 1.322.502c4.518-2.032 9.908-1.043 13.412 2.46 4.076 4.076 4.588 10.443 1.521 15.098l-.017-.235c-.04-.551-.502-.954-1.07-.925-.551.041-.964.52-.924 1.07l.2 2.743c.035.543.529.964 1.07.925l2.742-.2c.551-.041.964-.52.924-1.07s-.508-.961-1.07-.925l-.41.03c3.815-5.456 3.297-13.076-1.552-17.924z"/></svg>